<svg xmlns="http://www.w3.org/2000/svg" width="16" height="18" fill="none" viewBox="0 0 18 18"><path fill="#4945BE" d="M15.855 7.788V4.781C15.855 2.164 13.726 0 11.11 0H6.891C4.273 0 2.145 2.164 2.145 4.781v3.007C.902 8.383 0 9.642 0 11.11c0 2.036 1.691 3.727 3.727 3.727h.527V7.418h-.527c-.181 0-.354.028-.528.053V5.31h1.055V4.78A2.64 2.64 0 0 1 6.89 2.145h4.218a2.64 2.64 0 0 1 2.637 2.636v.528h1.055V7.47c-.174-.025-.347-.053-.528-.053h-.527v7.418h.527c.181 0 .354-.028.528-.053v1.108a.528.528 0 0 1-.528.527h-3.325a1.04 1.04 0 0 0-.893-.527h-2.11a1.055 1.055 0 1 0 0 2.109h2.11c.386 0 .709-.218.893-.527h3.325c.873 0 1.582-.71 1.582-1.582v-1.425C17.098 13.87 18 12.576 18 11.109c0-1.467-.902-2.726-2.145-3.32Z"/></svg>