<svg xmlns="http://www.w3.org/2000/svg" width="16" height="16" fill="none"><path fill="#C0C0C9" fill-rule="evenodd" d="M10.069 2.952a.318.318 0 0 1 .144.37L9.067 7.044h2.115a.318.318 0 0 1 .232.537L6.323 12.99a.319.319 0 0 1-.536-.312l1.146-3.724H4.818a.318.318 0 0 1-.231-.537l5.09-5.409a.318.318 0 0 1 .392-.057Z" clip-rule="evenodd"/><path fill="#C0C0C9" fill-rule="evenodd" d="M8 14.492A6.492 6.492 0 1 0 8 1.508a6.492 6.492 0 0 0 0 12.984ZM8 16A8 8 0 1 0 8 0a8 8 0 0 0 0 16Z" clip-rule="evenodd"/></svg>