<svg xmlns="http://www.w3.org/2000/svg" width="45" height="45" fill="none" viewBox="0 0 64 64"><circle cx="32" cy="32" r="32" fill="#C0C0C9"/><path fill="#fff" d="M49.966 47.712c0 .273-.154.524-.461.751-.307.228-.78.416-1.417.564-.638.148-1.292.284-1.964.41-.671.125-1.53.221-2.578.29-1.047.068-1.957.12-2.731.154-.774.034-1.77.062-2.988.085-1.218.023-2.14.034-2.766.034h-5.156l-2.766-.034-2.988-.086-2.732-.153-2.578-.29-1.963-.41-1.417-.564-.461-.75c.046-2.004 1.298-3.774 3.756-5.31 2.459-1.537 5.577-2.556 9.356-3.057V38.22A9.019 9.019 0 0 1 25.04 36c-.865-.956-1.548-2.077-2.049-3.363a19.648 19.648 0 0 1-1.092-4.132 31.138 31.138 0 0 1-.342-4.764c0-1.456.285-2.754.854-3.892s1.354-2.055 2.356-2.749c1.002-.694 2.151-1.218 3.449-1.57 1.297-.354 2.72-.53 4.268-.53 1.548 0 2.97.176 4.268.53 1.298.352 2.447.876 3.449 1.57 1.002.694 1.787 1.61 2.356 2.749.57 1.138.854 2.436.854 3.892 0 7.968-2.186 12.817-6.556 14.547v1.058c3.779.501 6.897 1.52 9.356 3.056 2.458 1.537 3.71 3.307 3.756 5.31Z"/></svg>